<region> sample=CHR_021.wav key=0 pitch_keycenter=21 ampeg_release=1.101
<region> sample=CHR_021.wav key=1 pitch_keycenter=21 ampeg_release=1.103
<region> sample=CHR_021.wav key=2 pitch_keycenter=21 ampeg_release=1.106
<region> sample=CHR_021.wav key=3 pitch_keycenter=21 ampeg_release=1.107
<region> sample=CHR_021.wav key=4 pitch_keycenter=21 ampeg_release=1.108
<region> sample=CHR_021.wav key=5 pitch_keycenter=21 ampeg_release=1.113
<region> sample=CHR_021.wav key=6 pitch_keycenter=21 ampeg_release=1.131
<region> sample=CHR_021.wav key=7 pitch_keycenter=21 ampeg_release=1.137
<region> sample=CHR_021.wav key=8 pitch_keycenter=21 ampeg_release=1.138
<region> sample=CHR_021.wav key=9 pitch_keycenter=21 ampeg_release=1.142
<region> sample=CHR_022.wav key=10 pitch_keycenter=21 ampeg_release=1.145
<region> sample=CHR_022.wav key=11 pitch_keycenter=21 ampeg_release=1.169
<region> sample=CHR_022.wav key=12 pitch_keycenter=21 ampeg_release=1.171
<region> sample=CHR_022.wav key=13 pitch_keycenter=21 ampeg_release=1.173
<region> sample=CHR_022.wav key=14 pitch_keycenter=21 ampeg_release=1.177
<region> sample=CHR_022.wav key=15 pitch_keycenter=21 ampeg_release=1.186
<region> sample=CHR_022.wav key=16 pitch_keycenter=21 ampeg_release=1.187
<region> sample=CHR_022.wav key=17 pitch_keycenter=21 ampeg_release=1.194
<region> sample=CHR_022.wav key=18 pitch_keycenter=21 ampeg_release=1.195
<region> sample=CHR_022.wav key=19 pitch_keycenter=21 ampeg_release=1.208
<region> sample=CHR_023.wav key=20 pitch_keycenter=21 ampeg_release=1.236
<region> sample=CHR_021.wav key=21 ampeg_release=1.240
<region> sample=CHR_022.wav key=22 ampeg_release=1.242
<region> sample=CHR_023.wav key=23 ampeg_release=1.244
<region> sample=CHR_024.wav key=24 ampeg_release=1.250
<region> sample=CHR_025.wav key=25 ampeg_release=1.251
<region> sample=CHR_026.wav key=26 ampeg_release=2.257
<region> sample=CHR_027.wav key=27 ampeg_release=2.263
<region> sample=CHR_028.wav key=28 ampeg_release=2.274
<region> sample=CHR_029.wav key=29 ampeg_release=2.276
<region> sample=CHR_030.wav key=30 ampeg_release=2.305
<region> sample=CHR_031.wav key=31 ampeg_release=2.306
<region> sample=CHR_032.wav key=32 ampeg_release=2.309
<region> sample=CHR_033.wav key=33 ampeg_release=2.311
<region> sample=CHR_034.wav key=34 ampeg_release=2.314
<region> sample=CHR_035.wav key=35 ampeg_release=2.317
<region> sample=CHR_036.wav key=36 ampeg_release=2.321
<region> sample=CHR_037.wav key=37 ampeg_release=2.323
<region> sample=CHR_038.wav key=38 ampeg_release=2.329
<region> sample=CHR_039.wav key=39 ampeg_release=2.342
<region> sample=CHR_040.wav key=40 ampeg_release=2.371
<region> sample=CHR_041.wav key=41 ampeg_release=2.373
<region> sample=CHR_042.wav key=42 ampeg_release=2.377
<region> sample=CHR_043.wav key=43 ampeg_release=2.379
<region> sample=CHR_044.wav key=44 ampeg_release=2.381
<region> sample=CHR_045.wav key=45 ampeg_release=2.383
<region> sample=CHR_046.wav key=46 ampeg_release=2.386
<region> sample=CHR_047.wav key=47 ampeg_release=2.398
<region> sample=CHR_048.wav key=48 ampeg_release=2.399
<region> sample=CHR_049.wav key=49 ampeg_release=2.403
<region> sample=CHR_050.wav key=50 ampeg_release=2.404
<region> sample=CHR_051.wav key=51 ampeg_release=3.409
<region> sample=CHR_052.wav key=52 ampeg_release=3.420
<region> sample=CHR_053.wav key=53 ampeg_release=3.427
<region> sample=CHR_054.wav key=54 ampeg_release=3.431
<region> sample=CHR_055.wav key=55 ampeg_release=3.445
<region> sample=CHR_056.wav key=56 ampeg_release=3.452
<region> sample=CHR_057.wav key=57 ampeg_release=3.460
<region> sample=CHR_058.wav key=58 ampeg_release=3.470
<region> sample=CHR_059.wav key=59 ampeg_release=3.477
<region> sample=CHR_060.wav key=60 ampeg_release=3.479
<region> sample=CHR_061.wav key=61 ampeg_release=3.482
<region> sample=CHR_062.wav key=62 ampeg_release=3.487
<region> sample=CHR_063.wav key=63 ampeg_release=3.492
<region> sample=CHR_064.wav key=64 ampeg_release=3.498
<region> sample=CHR_065.wav key=65 ampeg_release=3.504
<region> sample=CHR_066.wav key=66 ampeg_release=3.507
<region> sample=CHR_067.wav key=67 ampeg_release=3.514
<region> sample=CHR_068.wav key=68 ampeg_release=3.524
<region> sample=CHR_069.wav key=69 ampeg_release=3.532
<region> sample=CHR_070.wav key=70 ampeg_release=3.555
<region> sample=CHR_071.wav key=71 ampeg_release=3.557
<region> sample=CHR_072.wav key=72 ampeg_release=3.576
<region> sample=CHR_073.wav key=73 ampeg_release=3.586
<region> sample=CHR_074.wav key=74 ampeg_release=3.587
<region> sample=CHR_075.wav key=75 ampeg_release=3.589
<region> sample=CHR_076.wav key=76 ampeg_release=3.591
<region> sample=CHR_077.wav key=77 ampeg_release=4.601
<region> sample=CHR_078.wav key=78 ampeg_release=4.621
<region> sample=CHR_079.wav key=79 ampeg_release=4.654
<region> sample=CHR_080.wav key=80 ampeg_release=4.655
<region> sample=CHR_081.wav key=81 ampeg_release=4.664
<region> sample=CHR_082.wav key=82 ampeg_release=4.665
<region> sample=CHR_083.wav key=83 ampeg_release=4.675
<region> sample=CHR_084.wav key=84 ampeg_release=4.686
<region> sample=CHR_085.wav key=85 ampeg_release=4.695
<region> sample=CHR_086.wav key=86 ampeg_release=4.702
<region> sample=CHR_087.wav key=87 ampeg_release=4.705
<region> sample=CHR_088.wav key=88 ampeg_release=4.710
<region> sample=CHR_089.wav key=89 ampeg_release=4.723
<region> sample=CHR_090.wav key=90 ampeg_release=4.725
<region> sample=CHR_091.wav key=91 ampeg_release=4.727
<region> sample=CHR_092.wav key=92 ampeg_release=4.731
<region> sample=CHR_093.wav key=93 ampeg_release=4.732
<region> sample=CHR_094.wav key=94 ampeg_release=4.735
<region> sample=CHR_095.wav key=95 ampeg_release=4.742
<region> sample=CHR_096.wav key=96 ampeg_release=4.743
<region> sample=CHR_097.wav key=97 ampeg_release=4.744
<region> sample=CHR_098.wav key=98 ampeg_release=4.745
<region> sample=CHR_099.wav key=99 ampeg_release=4.750
<region> sample=CHR_100.wav key=100 ampeg_release=4.757
<region> sample=CHR_101.wav key=101 ampeg_release=4.762
<region> sample=CHR_102.wav key=102 ampeg_release=5.770
<region> sample=CHR_103.wav key=103 ampeg_release=5.780
<region> sample=CHR_104.wav key=104 ampeg_release=5.790
<region> sample=CHR_105.wav key=105 ampeg_release=5.805
<region> sample=CHR_106.wav key=106 ampeg_release=5.815
<region> sample=CHR_107.wav key=107 ampeg_release=5.817
<region> sample=CHR_108.wav key=108 pitch_keycenter=108 ampeg_release=5.828
<region> sample=CHR_108.wav key=109 pitch_keycenter=108 ampeg_release=5.831
<region> sample=CHR_108.wav key=110 pitch_keycenter=108 ampeg_release=5.833
<region> sample=CHR_108.wav key=111 pitch_keycenter=108 ampeg_release=5.834
<region> sample=CHR_108.wav key=112 pitch_keycenter=108 ampeg_release=5.838
<region> sample=CHR_108.wav key=113 pitch_keycenter=108 ampeg_release=5.844
<region> sample=CHR_108.wav key=114 pitch_keycenter=108 ampeg_release=5.853
<region> sample=CHR_108.wav key=115 pitch_keycenter=108 ampeg_release=5.878
<region> sample=CHR_108.wav key=116 pitch_keycenter=108 ampeg_release=5.900
<region> sample=CHR_108.wav key=117 pitch_keycenter=108 ampeg_release=5.905
<region> sample=CHR_108.wav key=118 pitch_keycenter=108 ampeg_release=5.914
<region> sample=CHR_108.wav key=119 pitch_keycenter=108 ampeg_release=5.939
<region> sample=CHR_108.wav key=120 pitch_keycenter=108 ampeg_release=5.942
<region> sample=CHR_108.wav key=121 pitch_keycenter=108 ampeg_release=5.943
<region> sample=CHR_108.wav key=122 pitch_keycenter=108 ampeg_release=5.944
<region> sample=CHR_108.wav key=123 pitch_keycenter=108 ampeg_release=5.945
<region> sample=CHR_108.wav key=124 pitch_keycenter=108 ampeg_release=5.964
<region> sample=CHR_108.wav key=125 pitch_keycenter=108 ampeg_release=5.977
<region> sample=CHR_108.wav key=126 pitch_keycenter=108 ampeg_release=5.980
<region> sample=CHR_108.wav key=127 pitch_keycenter=108 ampeg_release=6.995